<svg xmlns="http://www.w3.org/2000/svg" xmlns:xlink="http://www.w3.org/1999/xlink" width="18" height="20" viewBox="0 0 18 20">
  <path id="icon" class="cls-1" d="M887.205,3795H902.8a1.242,1.242,0,0,0,1.207-1.27v-17.46A1.242,1.242,0,0,0,902.8,3775h-15.59a1.242,1.242,0,0,0-1.208,1.27v17.46A1.242,1.242,0,0,0,887.205,3795Zm13.852-18.44a0.373,0.373,0,0,1,.363-0.38h1.131a0.371,0.371,0,0,1,.362.38v1.23a0.371,0.371,0,0,1-.362.38H901.42a0.373,0.373,0,0,1-.363-0.38v-1.23Zm0,3.13a0.382,0.382,0,0,1,.363-0.39h1.131a0.38,0.38,0,0,1,.362.39v1.23a0.371,0.371,0,0,1-.362.38H901.42a0.373,0.373,0,0,1-.363-0.38v-1.23Zm0,3.13a0.373,0.373,0,0,1,.363-0.38h1.131a0.371,0.371,0,0,1,.362.38v1.23a0.371,0.371,0,0,1-.362.38H901.42a0.373,0.373,0,0,1-.363-0.38v-1.23Zm0,3.13a0.373,0.373,0,0,1,.363-0.38h1.131a0.371,0.371,0,0,1,.362.38v1.23a0.371,0.371,0,0,1-.362.38H901.42a0.373,0.373,0,0,1-.363-0.38v-1.23Zm0,3.13a0.373,0.373,0,0,1,.363-0.38h1.131a0.371,0.371,0,0,1,.362.38v1.23a0.371,0.371,0,0,1-.362.38H901.42a0.373,0.373,0,0,1-.363-0.38v-1.23Zm0,3.13a0.373,0.373,0,0,1,.363-0.38h1.131a0.371,0.371,0,0,1,.362.38v1.23a0.38,0.38,0,0,1-.362.39H901.42a0.382,0.382,0,0,1-.363-0.39v-1.23Zm-10.874-14.73a0.372,0.372,0,0,1,.363-0.38h8.908a0.372,0.372,0,0,1,.362.38v6.09a0.382,0.382,0,0,1-.362.39h-8.908a0.381,0.381,0,0,1-.363-0.39v-6.09Zm0,9.4a0.372,0.372,0,0,1,.363-0.38h8.908a0.372,0.372,0,0,1,.362.38v5.63a0.372,0.372,0,0,1-.362.38h-8.908a0.372,0.372,0,0,1-.363-0.38v-5.63Zm-3.1-10.32a0.371,0.371,0,0,1,.362-0.38h1.132a0.371,0.371,0,0,1,.361.38v1.23a0.371,0.371,0,0,1-.361.38h-1.132a0.371,0.371,0,0,1-.362-0.38v-1.23Zm0,3.13a0.38,0.38,0,0,1,.362-0.39h1.132a0.38,0.38,0,0,1,.361.39v1.23a0.371,0.371,0,0,1-.361.38h-1.132a0.371,0.371,0,0,1-.362-0.38v-1.23Zm0,3.13a0.371,0.371,0,0,1,.362-0.38h1.132a0.371,0.371,0,0,1,.361.38v1.23a0.371,0.371,0,0,1-.361.38h-1.132a0.371,0.371,0,0,1-.362-0.38v-1.23Zm0,3.13a0.371,0.371,0,0,1,.362-0.38h1.132a0.371,0.371,0,0,1,.361.38v1.23a0.371,0.371,0,0,1-.361.38h-1.132a0.371,0.371,0,0,1-.362-0.38v-1.23Zm0,3.13a0.371,0.371,0,0,1,.362-0.38h1.132a0.371,0.371,0,0,1,.361.38v1.23a0.371,0.371,0,0,1-.361.38h-1.132a0.371,0.371,0,0,1-.362-0.38v-1.23Zm0,3.13a0.371,0.371,0,0,1,.362-0.38h1.132a0.371,0.371,0,0,1,.361.38v1.23a0.38,0.38,0,0,1-.361.39h-1.132a0.38,0.38,0,0,1-.362-0.39v-1.23Z" transform="translate(-886 -3775)"/>
</svg>
