<svg xmlns="http://www.w3.org/2000/svg" xmlns:xlink="http://www.w3.org/1999/xlink" width="13.69" height="13.66" viewBox="0 0 13.69 13.66">
  <defs>
    <style>
      .cls-1 {
        fill-rule: evenodd;
        filter: url(#filter);
      }
    </style>
    <filter id="filter" x="1477.34" y="1893.03" width="13.69" height="13.66" filterUnits="userSpaceOnUse">
      <feFlood result="flood" flood-color="#fff"/>
      <feComposite result="composite" operator="in" in2="SourceGraphic"/>
      <feBlend result="blend" in2="SourceGraphic"/>
    </filter>
  </defs>
  <path id="icon" class="cls-1" d="M1489.97,1899.2l-2.57,2.57a3.633,3.633,0,0,1-5.14,0,3.182,3.182,0,0,1-.55-0.73l1.19-1.2a1,1,0,0,1,.19-0.12,1.887,1.887,0,0,0,.45.77,1.817,1.817,0,0,0,2.57,0l2.57-2.57a1.817,1.817,0,0,0-2.57-2.57l-0.91.91a4.59,4.59,0,0,0-2.32-.25l1.95-1.95A3.635,3.635,0,0,1,1489.97,1899.2Zm-6.8,4.23-0.91.91a1.817,1.817,0,0,1-2.57-2.57l2.57-2.57a1.817,1.817,0,0,1,2.57,0,1.887,1.887,0,0,1,.45.77,1.072,1.072,0,0,0,.19-0.13l1.19-1.19a3.182,3.182,0,0,0-.55-0.73,3.633,3.633,0,0,0-5.14,0l-2.57,2.57a3.635,3.635,0,0,0,5.14,5.14l1.95-1.95A4.59,4.59,0,0,1,1483.17,1903.43Z" transform="translate(-1477.34 -1893.03)"/>
</svg>
