<svg xmlns="http://www.w3.org/2000/svg" xmlns:xlink="http://www.w3.org/1999/xlink"><symbol id="icon-arrow-next" viewBox="0 0 8.469 15"><path class="cls-1" d="M8.176 6.75L1.765.3A1.045 1.045 0 00.289 1.78l5.672 5.71-5.672 5.7a1.06 1.06 0 000 1.49 1.039 1.039 0 001.476 0l6.411-6.45a1.048 1.048 0 000-1.48z"/></symbol><symbol id="icon-arrow-prev" viewBox="0 0 8.5 15"><path class="cls-1" d="M.293 8.22l6.411 6.45a1.045 1.045 0 001.476-1.48L2.508 7.48l5.672-5.7a1.06 1.06 0 000-1.49 1.039 1.039 0 00-1.476 0L.293 6.74a1.048 1.048 0 000 1.48z"/></symbol><symbol id="icon-badge" viewBox="0 0 41.562 39.69"><path fill-rule="evenodd" d="M38.552 25.795c-.645 1.985.235 4.766-.97 6.418-1.219 1.669-4.15 1.687-5.823 2.902-1.657 1.202-2.574 3.985-4.564 4.63-1.92.622-4.292-1.072-6.421-1.072-2.129 0-4.5 1.694-6.421 1.072-1.991-.645-2.907-3.428-4.564-4.631-1.674-1.215-4.604-1.232-5.822-2.901-1.207-1.653-.327-4.434-.972-6.419-.624-1.917-2.996-3.64-2.996-5.763 0-2.124 2.371-3.848 2.995-5.763.646-1.986-.234-4.766.972-6.418 1.218-1.67 4.148-1.687 5.821-2.903C11.445 3.744 12.361.962 14.352.318c1.92-.622 4.293 1.071 6.421 1.071 2.129 0 4.501-1.693 6.421-1.071 1.991.644 2.907 3.426 4.564 4.629 1.673 1.216 4.605 1.233 5.823 2.903 1.206 1.652.326 4.432.971 6.418.624 1.916 2.995 3.639 2.997 5.763 0 2.123-2.372 3.848-2.997 5.764zM20.773 5.49c-8.038 0-14.577 6.523-14.577 14.541 0 8.019 6.539 14.541 14.577 14.541S35.35 28.05 35.35 20.031c0-8.018-6.539-14.541-14.577-14.541zm0 26.708c-6.726 0-12.197-5.458-12.197-12.167S14.047 7.865 20.773 7.865c6.726 0 12.197 5.457 12.197 12.166 0 6.709-5.471 12.167-12.197 12.167zm8.353-14.388a.737.737 0 00-.652-.506l-5.119-.33-1.898-4.754a.735.735 0 00-1.367 0l-1.897 4.754-5.119.33a.736.736 0 00-.652.506.73.73 0 00.229.791l3.947 3.27-1.267 4.958a.733.733 0 00.28.775.742.742 0 00.826.027l4.336-2.734 4.337 2.734a.736.736 0 001.106-.802l-1.267-4.958 3.947-3.27a.735.735 0 00.23-.791z"/></symbol><symbol id="icon-gear" viewBox="0 0 40.59 39.91"><path fill-rule="evenodd" d="M35.223 15.061l-.194-.07-.754-1.807.082-.185c2.286-5.201 2.128-5.356 1.749-5.733l-3.048-2.985a.815.815 0 00-.533-.211c-.171 0-.69 0-5.192 2.046l-.181.081-1.856-.75-.075-.186c-2.117-5.26-2.334-5.26-2.86-5.26h-4.305c-.525 0-.764 0-2.727 5.27l-.074.192-1.847.756-.177-.074c-3.047-1.29-4.826-1.944-5.29-1.944a.815.815 0 00-.533.209L4.357 7.403c-.387.383-.547.543 1.858 5.636l.088.189-.756 1.805-.185.072C-.002 17.186-.002 17.388-.002 17.93v4.233c0 .543 0 .769 5.375 2.703l.192.068.756 1.8-.081.184c-2.285 5.203-2.14 5.343-1.751 5.732l3.043 2.989a.839.839 0 00.537.211c.17 0 .688 0 5.193-2.046l.18-.085 1.859.755.072.187c2.118 5.259 2.336 5.259 2.863 5.259h4.306c.541 0 .764 0 2.729-5.274l.074-.192 1.849-.751.177.072c3.045 1.293 4.822 1.945 5.283 1.945a.813.813 0 00.536-.208l3.056-2.999c.384-.385.544-.543-1.865-5.63l-.09-.191.754-1.798.181-.07c5.373-2.092 5.373-2.296 5.373-2.839v-4.23c0-.544 0-.768-5.376-2.694zM20.298 26.826c-3.846 0-6.976-3.081-6.976-6.866 0-3.783 3.13-6.86 6.976-6.86 3.845 0 6.975 3.077 6.975 6.86 0 3.784-3.13 6.866-6.975 6.866z"/></symbol><symbol id="icon-image" viewBox="0 0 21 16.03"><path class="cls-1" d="M15.63 7.27c-.975.45-1.77 1.84-2.7.93a30.264 30.264 0 01-2.006-2.65c-.834-1.17-1.9-2.17-3.145-1.02-1.395 1.29-2.354 4.78-2.437 6.58l13.183.01c-.302-1.06-1.473-4.52-2.895-3.85zm-.061-5.22a1.6 1.6 0 11-1.621 1.59 1.611 1.611 0 011.621-1.59zM20.51.01H3.357a.475.475 0 00-.481.47v2.4H.469a.476.476 0 00-.482.47v12.2a.484.484 0 00.482.48h17.153a.484.484 0 00.482-.48v-2.39h2.406a.476.476 0 00.482-.47V.48a.476.476 0 00-.482-.47zm-3.7 14.75H1.281V4.15h1.595v7.37a12.446 12.446 0 00-.422 2.46h13.183c-.058-.2-.148-.49-.265-.82h1.438v1.6zm2.888-2.87H4.169V1.28H19.7v10.61z"/></symbol><symbol id="icon-leaf" viewBox="0 0 28.375 39.18"><path fill-rule="evenodd" d="M24.214.398s-3.253 3.129-6.77 4.391C-8.602 14.133 2.383 32.341 2.741 32.401c0 0 1.461-2.522 3.434-3.961C18.694 19.312 21.239 8.804 21.239 8.804S18.43 21.448 7.291 29.315c-2.46 1.737-4.125 6.013-4.83 10.286 0 0 1.743-.698 2.493-.887.293-1.893.904-3.705 1.938-5.324 15.567 1.838 20.665-10.602 21.331-14.941C29.794 8.204 24.214.398 24.214.398z"/></symbol><symbol id="icon-link" viewBox="0 0 13.69 13.66"><path class="cls-1" d="M12.63 6.17l-2.57 2.57a3.633 3.633 0 01-5.14 0 3.182 3.182 0 01-.55-.73l1.19-1.2a1 1 0 01.19-.12 1.887 1.887 0 00.45.77 1.817 1.817 0 002.57 0l2.57-2.57a1.817 1.817 0 00-2.57-2.57l-.91.91a4.59 4.59 0 00-2.32-.25l1.95-1.95a3.635 3.635 0 015.14 5.14zm-6.8 4.23l-.91.91a1.817 1.817 0 01-2.57-2.57l2.57-2.57a1.817 1.817 0 012.57 0 1.887 1.887 0 01.45.77 1.072 1.072 0 00.19-.13l1.19-1.19a3.182 3.182 0 00-.55-.73 3.633 3.633 0 00-5.14 0L1.06 7.46A3.635 3.635 0 006.2 12.6l1.95-1.95a4.59 4.59 0 01-2.32-.25z"/></symbol><symbol id="icon-photocamera" viewBox="0 0 22 16"><path class="cls-1" d="M13.741 5.64a3.265 3.265 0 103.258 3.27 3.27 3.27 0 00-3.258-3.27zm5.339-3.98h-1.393L15.918 0h-4.911L9.57 1.66H6.6a1.047 1.047 0 00-.921-.92h-2.1a1.057 1.057 0 00-.924.93A2.923 2.923 0 00.002 4.58v8.5a2.91 2.91 0 002.91 2.91H19.08a2.909 2.909 0 002.909-2.91v-8.5a2.917 2.917 0 00-2.909-2.92zM2.641 12.32a.55.55 0 01-1.1 0V6.51a.55.55 0 111.1 0v5.81zm3.308-8.51a.581.581 0 01-.581.58h-1.49a.581.581 0 01-.581-.58v-.34a.581.581 0 01.581-.58h1.49a.581.581 0 01.581.58v.34zm7.792 9.75a4.655 4.655 0 114.648-4.66 4.66 4.66 0 01-4.648 4.66z"/></symbol><symbol id="icon-smartphone" viewBox="0 0 25 40.09"><path fill-rule="evenodd" d="M21.74 40.994H3.269c-1.799 0-3.26-1.438-3.26-3.207V4.101c0-1.77 1.461-3.209 3.26-3.209H21.74c1.798 0 3.259 1.439 3.259 3.209v33.686c0 1.769-1.461 3.207-3.259 3.207zm-9.236-1.203c.973 0 1.766-.78 1.766-1.737 0-.957-.793-1.738-1.766-1.738-.972 0-1.766.781-1.766 1.738s.794 1.737 1.766 1.737zm2.988-35.969a.796.796 0 00-.804-.791h-4.367a.796.796 0 00-.804.791v.022c0 .438.358.791.804.791h4.367a.796.796 0 00.804-.791v-.022zm6.791 3.487a.54.54 0 00-.543-.535H3.269a.54.54 0 00-.543.535v27.269a.54.54 0 00.543.534H21.74a.54.54 0 00.543-.534V7.309zm-2.711 25.13H5.437a.533.533 0 01-.538-.529v-.011c0-.293.24-.529.538-.529h14.135c.298 0 .538.236.538.529v.011a.534.534 0 01-.538.529zm0-3.208H5.437a.533.533 0 01-.538-.53v-.01c0-.292.24-.529.538-.529h14.135c.298 0 .538.237.538.529v.01c0 .293-.241.53-.538.53zm0-3.208H5.437a.533.533 0 01-.538-.53v-.01c0-.293.24-.529.538-.529h14.135c.298 0 .538.236.538.529v.01c0 .293-.241.53-.538.53zm0-3.208H5.437a.533.533 0 01-.538-.53v-.01c0-.293.24-.53.538-.53h14.135c.298 0 .538.237.538.53v.01c0 .293-.241.53-.538.53zm0-3.209H5.437a.532.532 0 01-.538-.529v-.011c0-.292.24-.529.538-.529h14.135c.298 0 .538.237.538.529v.011a.533.533 0 01-.538.529zm-.005-6.951h-1.629a.539.539 0 01-.544-.534v-1.604a.54.54 0 01.544-.535h1.629c.3 0 .543.24.543.535v1.604a.54.54 0 01-.543.534zm-4.346.001h-1.63a.54.54 0 01-.543-.535v-1.604a.54.54 0 01.543-.534h1.63c.299 0 .542.239.542.534v1.604a.54.54 0 01-.542.535zm-3.803 0h-1.63a.54.54 0 01-.543-.535v-1.604a.54.54 0 01.543-.534h1.63c.3 0 .543.239.543.534v1.604a.54.54 0 01-.543.535zm-4.346 0h-1.63a.54.54 0 01-.543-.535v-1.604c0-.295.243-.534.543-.534h1.63a.54.54 0 01.543.534v1.604a.54.54 0 01-.543.535zm-1.635 2.673h9.246c.297 0 .538.237.538.53v.01c0 .293-.241.53-.538.53H5.437a.533.533 0 01-.538-.53v-.01c0-.293.24-.53.538-.53z"/></symbol><symbol id="icon-video" viewBox="0 0 18 20"><path class="cls-1" d="M1.205 20H16.8a1.242 1.242 0 001.207-1.27V1.27A1.242 1.242 0 0016.8 0H1.21A1.242 1.242 0 00.002 1.27v17.46A1.242 1.242 0 001.205 20zM15.057 1.56a.373.373 0 01.363-.38h1.131a.371.371 0 01.362.38v1.23a.371.371 0 01-.362.38H15.42a.373.373 0 01-.363-.38V1.56zm0 3.13a.382.382 0 01.363-.39h1.131a.38.38 0 01.362.39v1.23a.371.371 0 01-.362.38H15.42a.373.373 0 01-.363-.38V4.69zm0 3.13a.373.373 0 01.363-.38h1.131a.371.371 0 01.362.38v1.23a.371.371 0 01-.362.38H15.42a.373.373 0 01-.363-.38V7.82zm0 3.13a.373.373 0 01.363-.38h1.131a.371.371 0 01.362.38v1.23a.371.371 0 01-.362.38H15.42a.373.373 0 01-.363-.38v-1.23zm0 3.13a.373.373 0 01.363-.38h1.131a.371.371 0 01.362.38v1.23a.371.371 0 01-.362.38H15.42a.373.373 0 01-.363-.38v-1.23zm0 3.13a.373.373 0 01.363-.38h1.131a.371.371 0 01.362.38v1.23a.38.38 0 01-.362.39H15.42a.382.382 0 01-.363-.39v-1.23zM4.183 2.48a.372.372 0 01.363-.38h8.908a.372.372 0 01.362.38v6.09a.382.382 0 01-.362.39H4.546a.381.381 0 01-.363-.39V2.48zm0 9.4a.372.372 0 01.363-.38h8.908a.372.372 0 01.362.38v5.63a.372.372 0 01-.362.38H4.546a.372.372 0 01-.363-.38v-5.63zm-3.1-10.32a.371.371 0 01.362-.38h1.132a.371.371 0 01.361.38v1.23a.371.371 0 01-.361.38H1.445a.371.371 0 01-.362-.38V1.56zm0 3.13a.38.38 0 01.362-.39h1.132a.38.38 0 01.361.39v1.23a.371.371 0 01-.361.38H1.445a.371.371 0 01-.362-.38V4.69zm0 3.13a.371.371 0 01.362-.38h1.132a.371.371 0 01.361.38v1.23a.371.371 0 01-.361.38H1.445a.371.371 0 01-.362-.38V7.82zm0 3.13a.371.371 0 01.362-.38h1.132a.371.371 0 01.361.38v1.23a.371.371 0 01-.361.38H1.445a.371.371 0 01-.362-.38v-1.23zm0 3.13a.371.371 0 01.362-.38h1.132a.371.371 0 01.361.38v1.23a.371.371 0 01-.361.38H1.445a.371.371 0 01-.362-.38v-1.23zm0 3.13a.371.371 0 01.362-.38h1.132a.371.371 0 01.361.38v1.23a.38.38 0 01-.361.39H1.445a.38.38 0 01-.362-.39v-1.23z"/></symbol><symbol id="icon-zoom" viewBox="0 0 13.56 13.56"><path class="cls-1" d="M13.26 11.78l-2.8-2.79a5.536 5.536 0 001.01-3.25 5.66 5.66 0 00-.45-2.23A5.583 5.583 0 007.97.45 5.739 5.739 0 000 5.74a5.612 5.612 0 00.45 2.22 5.737 5.737 0 005.29 3.51 5.536 5.536 0 003.25-1.01l2.79 2.79a1 1 0 00.74.31 1.031 1.031 0 00.73-.31 1.038 1.038 0 00.01-1.47zM8.32 8.31a3.622 3.622 0 01-5.16 0 3.645 3.645 0 012.58-6.22 3.642 3.642 0 012.58 6.22z"/></symbol> <view id="icon-arrow-next-view-blue" viewBox="0 0 8.469 15"/><view id="icon-arrow-next-view-dark" viewBox="0 25 8.469 15"/><view id="icon-arrow-next-view-white" viewBox="0 50 8.469 15"/><view id="icon-arrow-prev-view-blue" viewBox="0 75 8.5 15"/><view id="icon-arrow-prev-view-dark" viewBox="0 100 8.5 15"/><view id="icon-arrow-prev-view-white" viewBox="0 125 8.5 15"/><view id="icon-badge-view-blue" viewBox="0 150 41.562 39.69"/><view id="icon-badge-view-dark" viewBox="0 199.69 41.562 39.69"/><view id="icon-badge-view-white" viewBox="0 249.38 41.562 39.69"/><view id="icon-gear-view-blue" viewBox="0 299.07 40.59 39.91"/><view id="icon-gear-view-dark" viewBox="0 348.98 40.59 39.91"/><view id="icon-gear-view-white" viewBox="0 398.89 40.59 39.91"/><view id="icon-image-view-blue" viewBox="0 448.79999999999995 21 16.03"/><view id="icon-image-view-dark" viewBox="0 474.8299999999999 21 16.03"/><view id="icon-image-view-white" viewBox="0 500.85999999999996 21 16.03"/><view id="icon-leaf-view-blue" viewBox="0 526.89 28.375 39.18"/><view id="icon-leaf-view-dark" viewBox="0 576.0699999999999 28.375 39.18"/><view id="icon-leaf-view-white" viewBox="0 625.25 28.375 39.18"/><view id="icon-link-view-blue" viewBox="0 674.43 13.69 13.66"/><view id="icon-link-view-dark" viewBox="0 698.0899999999999 13.69 13.66"/><view id="icon-link-view-white" viewBox="0 721.75 13.69 13.66"/><view id="icon-photocamera-view-blue" viewBox="0 745.41 22 16"/><view id="icon-photocamera-view-dark" viewBox="0 771.41 22 16"/><view id="icon-photocamera-view-white" viewBox="0 797.41 22 16"/><view id="icon-smartphone-view-blue" viewBox="0 823.41 25 40.09"/><view id="icon-smartphone-view-dark" viewBox="0 873.5 25 40.09"/><view id="icon-smartphone-view-white" viewBox="0 923.5899999999999 25 40.09"/><view id="icon-video-view-blue" viewBox="0 973.68 18 20"/><view id="icon-video-view-dark" viewBox="0 1003.68 18 20"/><view id="icon-video-view-white" viewBox="0 1033.6799999999998 18 20"/><view id="icon-zoom-view-blue" viewBox="0 1063.6799999999998 13.56 13.56"/><view id="icon-zoom-view-dark" viewBox="0 1087.2399999999998 13.56 13.56"/><view id="icon-zoom-view-white" viewBox="0 1110.7999999999997 13.56 13.56"/> <use xlink:href="#icon-arrow-next" x="0" y="0" width="8.469" height="15" style="fill:#638bf5"/><use xlink:href="#icon-arrow-next" x="0" y="25" width="8.469" height="15" style="fill:#464646"/><use xlink:href="#icon-arrow-next" x="0" y="50" width="8.469" height="15" style="fill:#ffffff"/><use xlink:href="#icon-arrow-prev" x="0" y="75" width="8.5" height="15" style="fill:#638bf5"/><use xlink:href="#icon-arrow-prev" x="0" y="100" width="8.5" height="15" style="fill:#464646"/><use xlink:href="#icon-arrow-prev" x="0" y="125" width="8.5" height="15" style="fill:#ffffff"/><use xlink:href="#icon-badge" x="0" y="150" width="41.562" height="39.69" style="fill:#638bf5"/><use xlink:href="#icon-badge" x="0" y="199.69" width="41.562" height="39.69" style="fill:#464646"/><use xlink:href="#icon-badge" x="0" y="249.38" width="41.562" height="39.69" style="fill:#ffffff"/><use xlink:href="#icon-gear" x="0" y="299.07" width="40.59" height="39.91" style="fill:#638bf5"/><use xlink:href="#icon-gear" x="0" y="348.98" width="40.59" height="39.91" style="fill:#464646"/><use xlink:href="#icon-gear" x="0" y="398.89" width="40.59" height="39.91" style="fill:#ffffff"/><use xlink:href="#icon-image" x="0" y="448.79999999999995" width="21" height="16.03" style="fill:#638bf5"/><use xlink:href="#icon-image" x="0" y="474.8299999999999" width="21" height="16.03" style="fill:#464646"/><use xlink:href="#icon-image" x="0" y="500.85999999999996" width="21" height="16.03" style="fill:#ffffff"/><use xlink:href="#icon-leaf" x="0" y="526.89" width="28.375" height="39.18" style="fill:#638bf5"/><use xlink:href="#icon-leaf" x="0" y="576.0699999999999" width="28.375" height="39.18" style="fill:#464646"/><use xlink:href="#icon-leaf" x="0" y="625.25" width="28.375" height="39.18" style="fill:#ffffff"/><use xlink:href="#icon-link" x="0" y="674.43" width="13.69" height="13.66" style="fill:#638bf5"/><use xlink:href="#icon-link" x="0" y="698.0899999999999" width="13.69" height="13.66" style="fill:#464646"/><use xlink:href="#icon-link" x="0" y="721.75" width="13.69" height="13.66" style="fill:#ffffff"/><use xlink:href="#icon-photocamera" x="0" y="745.41" width="22" height="16" style="fill:#638bf5"/><use xlink:href="#icon-photocamera" x="0" y="771.41" width="22" height="16" style="fill:#464646"/><use xlink:href="#icon-photocamera" x="0" y="797.41" width="22" height="16" style="fill:#ffffff"/><use xlink:href="#icon-smartphone" x="0" y="823.41" width="25" height="40.09" style="fill:#638bf5"/><use xlink:href="#icon-smartphone" x="0" y="873.5" width="25" height="40.09" style="fill:#464646"/><use xlink:href="#icon-smartphone" x="0" y="923.5899999999999" width="25" height="40.09" style="fill:#ffffff"/><use xlink:href="#icon-video" x="0" y="973.68" width="18" height="20" style="fill:#638bf5"/><use xlink:href="#icon-video" x="0" y="1003.68" width="18" height="20" style="fill:#464646"/><use xlink:href="#icon-video" x="0" y="1033.6799999999998" width="18" height="20" style="fill:#ffffff"/><use xlink:href="#icon-zoom" x="0" y="1063.6799999999998" width="13.56" height="13.56" style="fill:#638bf5"/><use xlink:href="#icon-zoom" x="0" y="1087.2399999999998" width="13.56" height="13.56" style="fill:#464646"/><use xlink:href="#icon-zoom" x="0" y="1110.7999999999997" width="13.56" height="13.56" style="fill:#ffffff"/></svg>